<mxfile host="app.diagrams.net" modified="2020-08-28T08:22:24.897Z" agent="5.0 (Windows NT 10.0; Win64; x64) AppleWebKit/537.36 (KHTML, like Gecko) Chrome/85.0.4183.83 Safari/537.36" etag="P7-sPaVkcq7sTBQBdbqs" version="13.6.5" type="github">
  <diagram id="yEMy7lb2OtCyVYhWc74e" name="Page-1">
    <mxGraphModel dx="1102" dy="582" grid="1" gridSize="10" guides="1" tooltips="1" connect="1" arrows="1" fold="1" page="1" pageScale="1" pageWidth="1169" pageHeight="827" math="0" shadow="0">
      <root>
        <mxCell id="0" />
        <mxCell id="1" parent="0" />
        <mxCell id="TGmY8kts-XNQtiWyerlt-1" value="" style="rounded=1;whiteSpace=wrap;html=1;fillColor=#f5f5f5;strokeColor=#666666;fontColor=#333333;" parent="1" vertex="1">
          <mxGeometry x="25" y="140" width="805" height="185" as="geometry" />
        </mxCell>
        <mxCell id="fY6p8MWptXcg_yQPOpdN-1" value="" style="rounded=1;whiteSpace=wrap;html=1;fillColor=#f5f5f5;strokeColor=#666666;fontColor=#333333;" vertex="1" parent="1">
          <mxGeometry x="145" y="370" width="290" height="180" as="geometry" />
        </mxCell>
        <mxCell id="fY6p8MWptXcg_yQPOpdN-2" value="查&lt;br&gt;询&lt;br&gt;全&lt;br&gt;部" style="rounded=1;whiteSpace=wrap;html=1;rotation=0;fillColor=#d5e8d4;strokeColor=#82b366;" vertex="1" parent="1">
          <mxGeometry x="185" y="420" width="40" height="80" as="geometry" />
        </mxCell>
        <mxCell id="fY6p8MWptXcg_yQPOpdN-3" value="条&lt;br&gt;件&lt;br&gt;查&lt;br&gt;询" style="rounded=1;whiteSpace=wrap;html=1;fillColor=#d5e8d4;strokeColor=#82b366;" vertex="1" parent="1">
          <mxGeometry x="245" y="420" width="40" height="80" as="geometry" />
        </mxCell>
        <mxCell id="fY6p8MWptXcg_yQPOpdN-4" value="更&lt;br&gt;新&lt;br&gt;表" style="rounded=1;whiteSpace=wrap;html=1;fillColor=#d5e8d4;strokeColor=#82b366;" vertex="1" parent="1">
          <mxGeometry x="305" y="420" width="40" height="80" as="geometry" />
        </mxCell>
        <mxCell id="fY6p8MWptXcg_yQPOpdN-5" value="添&lt;br&gt;加&lt;br&gt;表&lt;br&gt;项" style="rounded=1;whiteSpace=wrap;html=1;fillColor=#d5e8d4;strokeColor=#82b366;" vertex="1" parent="1">
          <mxGeometry x="365" y="420" width="40" height="80" as="geometry" />
        </mxCell>
        <mxCell id="fY6p8MWptXcg_yQPOpdN-6" value="数据库操作模块" style="text;html=1;strokeColor=none;fillColor=none;align=center;verticalAlign=middle;whiteSpace=wrap;rounded=0;" vertex="1" parent="1">
          <mxGeometry x="235" y="380" width="110" height="20" as="geometry" />
        </mxCell>
        <mxCell id="fY6p8MWptXcg_yQPOpdN-9" style="edgeStyle=orthogonalEdgeStyle;rounded=0;orthogonalLoop=1;jettySize=auto;html=1;exitX=0.5;exitY=0;exitDx=0;exitDy=0;entryX=0.5;entryY=1;entryDx=0;entryDy=0;" edge="1" parent="1" source="fY6p8MWptXcg_yQPOpdN-7" target="fY6p8MWptXcg_yQPOpdN-1">
          <mxGeometry relative="1" as="geometry" />
        </mxCell>
        <mxCell id="fY6p8MWptXcg_yQPOpdN-7" value="" style="rounded=1;whiteSpace=wrap;html=1;fillColor=#f5f5f5;strokeColor=#666666;fontColor=#333333;" vertex="1" parent="1">
          <mxGeometry x="126.25" y="615" width="327.5" height="130" as="geometry" />
        </mxCell>
        <mxCell id="fY6p8MWptXcg_yQPOpdN-8" value="学&lt;br&gt;生&lt;br&gt;表" style="rounded=1;whiteSpace=wrap;html=1;fillColor=#ffe6cc;strokeColor=#d79b00;" vertex="1" parent="1">
          <mxGeometry x="150" y="640" width="40" height="80" as="geometry" />
        </mxCell>
        <mxCell id="fY6p8MWptXcg_yQPOpdN-10" value="房&lt;br&gt;间&lt;br&gt;表" style="rounded=1;whiteSpace=wrap;html=1;fillColor=#ffe6cc;strokeColor=#d79b00;" vertex="1" parent="1">
          <mxGeometry x="210" y="640" width="40" height="80" as="geometry" />
        </mxCell>
        <mxCell id="fY6p8MWptXcg_yQPOpdN-11" value="宿&lt;br&gt;舍&lt;br&gt;楼&lt;br&gt;表" style="rounded=1;whiteSpace=wrap;html=1;fillColor=#ffe6cc;strokeColor=#d79b00;" vertex="1" parent="1">
          <mxGeometry x="270" y="640" width="40" height="80" as="geometry" />
        </mxCell>
        <mxCell id="fY6p8MWptXcg_yQPOpdN-12" value="管&lt;br&gt;理&lt;br&gt;员&lt;br&gt;表" style="rounded=1;whiteSpace=wrap;html=1;fillColor=#ffe6cc;strokeColor=#d79b00;" vertex="1" parent="1">
          <mxGeometry x="330" y="640" width="40" height="80" as="geometry" />
        </mxCell>
        <mxCell id="fY6p8MWptXcg_yQPOpdN-13" style="edgeStyle=orthogonalEdgeStyle;rounded=0;orthogonalLoop=1;jettySize=auto;html=1;exitX=0.5;exitY=1;exitDx=0;exitDy=0;entryX=0.5;entryY=0.923;entryDx=0;entryDy=0;entryPerimeter=0;" edge="1" parent="1" source="fY6p8MWptXcg_yQPOpdN-7" target="fY6p8MWptXcg_yQPOpdN-7">
          <mxGeometry relative="1" as="geometry" />
        </mxCell>
        <mxCell id="fY6p8MWptXcg_yQPOpdN-16" value="消&lt;br&gt;息&lt;br&gt;表" style="rounded=1;whiteSpace=wrap;html=1;fillColor=#ffe6cc;strokeColor=#d79b00;" vertex="1" parent="1">
          <mxGeometry x="393.5" y="640" width="40" height="80" as="geometry" />
        </mxCell>
        <mxCell id="fY6p8MWptXcg_yQPOpdN-17" value="" style="rounded=1;whiteSpace=wrap;html=1;" vertex="1" parent="1">
          <mxGeometry x="590" y="430" width="120" height="60" as="geometry" />
        </mxCell>
        <mxCell id="fY6p8MWptXcg_yQPOpdN-19" value="账&lt;br&gt;号&lt;br&gt;登&lt;br&gt;录" style="rounded=1;whiteSpace=wrap;html=1;fillColor=#dae8fc;strokeColor=#6c8ebf;" vertex="1" parent="1">
          <mxGeometry x="40" y="180" width="40" height="100" as="geometry" />
        </mxCell>
        <mxCell id="fY6p8MWptXcg_yQPOpdN-39" value="" style="shape=ext;rounded=1;html=1;whiteSpace=wrap;dashed=1;dashPattern=1 4;gradientColor=#b3b3b3;fillColor=#f5f5f5;strokeColor=#666666;" vertex="1" parent="1">
          <mxGeometry x="100" y="170" width="180" height="125" as="geometry" />
        </mxCell>
        <mxCell id="fY6p8MWptXcg_yQPOpdN-33" value="查&lt;br&gt;询&lt;br&gt;房&lt;br&gt;间&lt;br&gt;信&lt;br&gt;息" style="rounded=1;whiteSpace=wrap;html=1;fillColor=#dae8fc;strokeColor=#6c8ebf;" vertex="1" parent="1">
          <mxGeometry x="110" y="180" width="40" height="100" as="geometry" />
        </mxCell>
        <mxCell id="fY6p8MWptXcg_yQPOpdN-34" value="查&lt;br&gt;询&lt;br&gt;学&lt;br&gt;生&lt;br&gt;信&lt;br&gt;息" style="rounded=1;whiteSpace=wrap;html=1;fillColor=#dae8fc;strokeColor=#6c8ebf;" vertex="1" parent="1">
          <mxGeometry x="170" y="180" width="40" height="100" as="geometry" />
        </mxCell>
        <mxCell id="fY6p8MWptXcg_yQPOpdN-41" value="查&lt;br&gt;询&lt;br&gt;床&lt;br&gt;位&lt;br&gt;信&lt;br&gt;息" style="rounded=1;whiteSpace=wrap;html=1;fillColor=#dae8fc;strokeColor=#6c8ebf;" vertex="1" parent="1">
          <mxGeometry x="230" y="180" width="40" height="100" as="geometry" />
        </mxCell>
        <mxCell id="fY6p8MWptXcg_yQPOpdN-45" value="删&lt;br&gt;除&lt;br&gt;学&lt;br&gt;生&lt;br&gt;信&lt;br&gt;息" style="rounded=1;whiteSpace=wrap;html=1;" vertex="1" parent="1">
          <mxGeometry x="390" y="180" width="40" height="100" as="geometry" />
        </mxCell>
        <mxCell id="fY6p8MWptXcg_yQPOpdN-46" value="设&lt;br&gt;置&lt;br&gt;住&lt;br&gt;宿&lt;br&gt;费" style="rounded=1;whiteSpace=wrap;html=1;" vertex="1" parent="1">
          <mxGeometry x="445" y="180" width="40" height="100" as="geometry" />
        </mxCell>
        <mxCell id="fY6p8MWptXcg_yQPOpdN-47" value="设&lt;br&gt;置&lt;br&gt;电&lt;br&gt;费" style="rounded=1;whiteSpace=wrap;html=1;" vertex="1" parent="1">
          <mxGeometry x="500" y="180" width="40" height="100" as="geometry" />
        </mxCell>
        <mxCell id="fY6p8MWptXcg_yQPOpdN-49" style="edgeStyle=orthogonalEdgeStyle;rounded=0;orthogonalLoop=1;jettySize=auto;html=1;exitX=0;exitY=0.5;exitDx=0;exitDy=0;entryX=0.025;entryY=0.44;entryDx=0;entryDy=0;entryPerimeter=0;" edge="1" parent="1" source="fY6p8MWptXcg_yQPOpdN-45" target="fY6p8MWptXcg_yQPOpdN-45">
          <mxGeometry relative="1" as="geometry" />
        </mxCell>
        <mxCell id="fY6p8MWptXcg_yQPOpdN-50" value="" style="shape=ext;rounded=1;html=1;whiteSpace=wrap;dashed=1;dashPattern=1 4;gradientColor=#ffd966;fillColor=#fff2cc;strokeColor=#d6b656;" vertex="1" parent="1">
          <mxGeometry x="305" y="170" width="305" height="130" as="geometry" />
        </mxCell>
        <mxCell id="fY6p8MWptXcg_yQPOpdN-51" style="edgeStyle=orthogonalEdgeStyle;rounded=0;orthogonalLoop=1;jettySize=auto;html=1;exitX=0;exitY=0.5;exitDx=0;exitDy=0;entryX=0.025;entryY=0.44;entryDx=0;entryDy=0;entryPerimeter=0;" edge="1" source="fY6p8MWptXcg_yQPOpdN-52" target="fY6p8MWptXcg_yQPOpdN-52" parent="1">
          <mxGeometry relative="1" as="geometry" />
        </mxCell>
        <mxCell id="fY6p8MWptXcg_yQPOpdN-52" value="删&lt;br&gt;除&lt;br&gt;学&lt;br&gt;生&lt;br&gt;信&lt;br&gt;息" style="rounded=1;whiteSpace=wrap;html=1;" vertex="1" parent="1">
          <mxGeometry x="390" y="180" width="40" height="100" as="geometry" />
        </mxCell>
        <mxCell id="fY6p8MWptXcg_yQPOpdN-53" value="设&lt;br&gt;置&lt;br&gt;住&lt;br&gt;宿&lt;br&gt;费" style="rounded=1;whiteSpace=wrap;html=1;" vertex="1" parent="1">
          <mxGeometry x="445" y="180" width="40" height="100" as="geometry" />
        </mxCell>
        <mxCell id="fY6p8MWptXcg_yQPOpdN-54" value="设&lt;br&gt;置&lt;br&gt;电&lt;br&gt;费" style="rounded=1;whiteSpace=wrap;html=1;" vertex="1" parent="1">
          <mxGeometry x="500" y="180" width="40" height="100" as="geometry" />
        </mxCell>
        <mxCell id="fY6p8MWptXcg_yQPOpdN-56" value="删&lt;br&gt;除&lt;br&gt;学&lt;br&gt;生&lt;br&gt;信&lt;br&gt;息" style="rounded=1;whiteSpace=wrap;html=1;fillColor=#dae8fc;strokeColor=#6c8ebf;" vertex="1" parent="1">
          <mxGeometry x="390" y="180" width="40" height="100" as="geometry" />
        </mxCell>
        <mxCell id="fY6p8MWptXcg_yQPOpdN-57" value="设&lt;br&gt;置&lt;br&gt;住&lt;br&gt;宿&lt;br&gt;费" style="rounded=1;whiteSpace=wrap;html=1;fillColor=#dae8fc;strokeColor=#6c8ebf;" vertex="1" parent="1">
          <mxGeometry x="445" y="180" width="40" height="100" as="geometry" />
        </mxCell>
        <mxCell id="fY6p8MWptXcg_yQPOpdN-58" value="设&lt;br&gt;置&lt;br&gt;电&lt;br&gt;费" style="rounded=1;whiteSpace=wrap;html=1;fillColor=#dae8fc;strokeColor=#6c8ebf;" vertex="1" parent="1">
          <mxGeometry x="500" y="180" width="40" height="100" as="geometry" />
        </mxCell>
        <mxCell id="fY6p8MWptXcg_yQPOpdN-35" value="自动插入学生至有空位房间" style="rounded=1;whiteSpace=wrap;html=1;fillColor=#dae8fc;strokeColor=#6c8ebf;" vertex="1" parent="1">
          <mxGeometry x="313.5" y="180" width="60" height="100" as="geometry" />
        </mxCell>
        <mxCell id="fY6p8MWptXcg_yQPOpdN-48" value="指&lt;br&gt;定&lt;br&gt;宿&lt;br&gt;舍&lt;br&gt;长" style="rounded=1;whiteSpace=wrap;html=1;fillColor=#dae8fc;strokeColor=#6c8ebf;" vertex="1" parent="1">
          <mxGeometry x="560" y="180" width="40" height="100" as="geometry" />
        </mxCell>
        <mxCell id="fY6p8MWptXcg_yQPOpdN-60" value="" style="shape=ext;rounded=1;html=1;whiteSpace=wrap;dashed=1;dashPattern=1 4;gradientColor=#ea6b66;fillColor=#f8cecc;strokeColor=#b85450;" vertex="1" parent="1">
          <mxGeometry x="650" y="167.5" width="160" height="125" as="geometry" />
        </mxCell>
        <mxCell id="fY6p8MWptXcg_yQPOpdN-43" value="设置自动到点或交费来电" style="rounded=1;whiteSpace=wrap;html=1;fillColor=#dae8fc;strokeColor=#6c8ebf;" vertex="1" parent="1">
          <mxGeometry x="710" y="180" width="40" height="100" as="geometry" />
        </mxCell>
        <mxCell id="fY6p8MWptXcg_yQPOpdN-37" value="设置自动到点或欠费断电" style="rounded=1;whiteSpace=wrap;html=1;fillColor=#dae8fc;strokeColor=#6c8ebf;" vertex="1" parent="1">
          <mxGeometry x="660" y="180" width="40" height="100" as="geometry" />
        </mxCell>
        <mxCell id="fY6p8MWptXcg_yQPOpdN-44" value="发&lt;br&gt;送&lt;br&gt;欠&lt;br&gt;费&lt;br&gt;消&lt;br&gt;息" style="rounded=1;whiteSpace=wrap;html=1;fillColor=#dae8fc;strokeColor=#6c8ebf;" vertex="1" parent="1">
          <mxGeometry x="760" y="180" width="40" height="100" as="geometry" />
        </mxCell>
        <mxCell id="fY6p8MWptXcg_yQPOpdN-61" value="查询子系统" style="text;html=1;strokeColor=none;fillColor=none;align=center;verticalAlign=middle;whiteSpace=wrap;rounded=0;" vertex="1" parent="1">
          <mxGeometry x="155" y="145" width="70" height="20" as="geometry" />
        </mxCell>
        <mxCell id="fY6p8MWptXcg_yQPOpdN-62" value="系统信息管理子系统" style="text;html=1;strokeColor=none;fillColor=none;align=center;verticalAlign=middle;whiteSpace=wrap;rounded=0;" vertex="1" parent="1">
          <mxGeometry x="390" y="145" width="135" height="20" as="geometry" />
        </mxCell>
        <mxCell id="fY6p8MWptXcg_yQPOpdN-63" value="费用管理子系统" style="text;html=1;strokeColor=none;fillColor=none;align=center;verticalAlign=middle;whiteSpace=wrap;rounded=0;" vertex="1" parent="1">
          <mxGeometry x="685" y="145" width="90" height="20" as="geometry" />
        </mxCell>
      </root>
    </mxGraphModel>
  </diagram>
</mxfile>
